<svg width="254" height="254" viewBox="0 0 254 254" fill="none" xmlns="http://www.w3.org/2000/svg">
<path d="M109.836 105.396C91.0811 88.3464 61 101.653 61 127C61 152.347 91.081 165.654 109.836 148.604L121.473 138.025C124.607 135.176 129.393 135.176 132.527 138.025L144.164 148.604C162.919 165.654 193 152.347 193 127C193 101.653 162.919 88.3464 144.164 105.396L132.527 115.975C129.393 118.824 124.607 118.824 121.473 115.975L109.836 105.396Z" fill="url(#paint0_radial)"/>
<path d="M137.897 155.074C118.43 163.874 124.708 193 146.071 193V193C162.468 193 171.79 174.243 161.889 161.173L139.941 132.202C137.61 129.126 137.61 124.874 139.941 121.798L161.889 92.8268C171.79 79.7573 162.468 61 146.071 61V61C124.708 61 118.43 90.126 137.897 98.9261L185.726 120.548C191.279 123.058 191.279 130.942 185.726 133.452L137.897 155.074Z" fill="url(#paint1_linear)" style="mix-blend-mode:darken"/>
<path d="M116.103 155.074C135.57 163.874 129.292 193 107.929 193V193C91.5322 193 82.2101 174.243 92.1112 161.173L114.059 132.202C116.39 129.126 116.39 124.874 114.059 121.798L92.1112 92.8268C82.2101 79.7573 91.5322 61 107.929 61V61C129.292 61 135.57 90.126 116.103 98.9261L68.2736 120.548C62.7213 123.058 62.7212 130.942 68.2736 133.452L116.103 155.074Z" fill="url(#paint2_linear)" style="mix-blend-mode:darken"/>
<rect x="120" y="120" width="14" height="14" rx="7" fill="url(#paint3_radial)"/>
<path d="M166.669 56.5685C172.905 56.5685 176.029 64.1085 171.619 68.5183L131.95 108.187C129.216 110.921 124.784 110.921 122.05 108.187L82.3812 68.5183C77.9715 64.1085 81.0946 56.5685 87.331 56.5685L166.669 56.5685Z" fill="url(#paint4_linear)"/>
<path d="M87.3309 197.431C81.0946 197.431 77.9715 189.891 82.3812 185.482L122.05 145.813C124.784 143.079 129.216 143.079 131.95 145.813L171.619 185.482C176.029 189.891 172.905 197.431 166.669 197.431L87.3309 197.431Z" fill="url(#paint5_linear)"/>
<path d="M56.5685 87.3309C56.5685 81.0946 64.1085 77.9714 68.5183 82.3812L108.187 122.05C110.921 124.784 110.921 129.216 108.187 131.95L68.5183 171.619C64.1085 176.029 56.5685 172.905 56.5685 166.669L56.5685 87.3309Z" fill="url(#paint6_linear)"/>
<path d="M197.431 166.669C197.431 172.905 189.891 176.029 185.482 171.619L145.813 131.95C143.079 129.216 143.079 124.784 145.813 122.05L185.482 82.3812C189.891 77.9715 197.431 81.0946 197.431 87.331L197.431 166.669Z" fill="url(#paint7_linear)"/>
<defs>
<radialGradient id="paint0_radial" cx="0" cy="0" r="1" gradientUnits="userSpaceOnUse" gradientTransform="translate(127 127) rotate(154.578) scale(89.6842)">
<stop stop-color="#FF00D6"/>
<stop offset="1" stop-color="#007DFF"/>
</radialGradient>
<linearGradient id="paint1_linear" x1="149.5" y1="42" x2="149.5" y2="211.5" gradientUnits="userSpaceOnUse">
<stop stop-color="#007DFF"/>
<stop offset="0.510417" stop-color="#FF00D6"/>
<stop offset="1" stop-color="#007DFF"/>
</linearGradient>
<linearGradient id="paint2_linear" x1="104.5" y1="42" x2="104.5" y2="211.5" gradientUnits="userSpaceOnUse">
<stop stop-color="#007DFF"/>
<stop offset="0.510417" stop-color="#FF00D6"/>
<stop offset="1" stop-color="#007DFF"/>
</linearGradient>
<radialGradient id="paint3_radial" cx="0" cy="0" r="1" gradientUnits="userSpaceOnUse" gradientTransform="translate(127 127) rotate(120.964) scale(8.74643)">
<stop stop-color="#FF9900"/>
<stop offset="1" stop-color="#FFE600" stop-opacity="0"/>
</radialGradient>
<linearGradient id="paint4_linear" x1="137.071" y1="-7.49962" x2="113.501" y2="99.6378" gradientUnits="userSpaceOnUse">
<stop stop-color="#FF00D6"/>
<stop offset="1" stop-color="#00D1FF" stop-opacity="0"/>
</linearGradient>
<linearGradient id="paint5_linear" x1="116.929" y1="261.5" x2="140.499" y2="154.362" gradientUnits="userSpaceOnUse">
<stop stop-color="#FF00D6"/>
<stop offset="1" stop-color="#00D1FF" stop-opacity="0"/>
</linearGradient>
<linearGradient id="paint6_linear" x1="-7.49962" y1="116.929" x2="99.6378" y2="140.499" gradientUnits="userSpaceOnUse">
<stop stop-color="#FF00D6"/>
<stop offset="1" stop-color="#00D1FF" stop-opacity="0"/>
</linearGradient>
<linearGradient id="paint7_linear" x1="261.5" y1="137.071" x2="154.362" y2="113.501" gradientUnits="userSpaceOnUse">
<stop stop-color="#FF00D6"/>
<stop offset="1" stop-color="#00D1FF" stop-opacity="0"/>
</linearGradient>
</defs>
</svg>
