<svg width="254" height="254" viewBox="0 0 254 254" fill="none" xmlns="http://www.w3.org/2000/svg">
<path d="M161.69 60.4362C168.43 59.2446 172.698 67.4389 167.858 72.2791L131.95 108.187C129.216 110.921 124.784 110.921 122.05 108.187L86.142 72.2791C81.3018 67.4389 85.5698 59.2446 92.3103 60.4362L125.781 66.3531C126.588 66.4956 127.412 66.4956 128.219 66.3531L161.69 60.4362Z" fill="url(#paint0_linear)"/>
<path d="M92.3103 193.564C85.5697 194.755 81.3018 186.561 86.142 181.721L122.05 145.813C124.784 143.079 129.216 143.079 131.95 145.813L167.858 181.721C172.698 186.561 168.43 194.755 161.69 193.564L128.219 187.647C127.412 187.504 126.588 187.504 125.781 187.647L92.3103 193.564Z" fill="url(#paint1_linear)"/>
<path d="M60.4362 92.3103C59.2446 85.5697 67.4389 81.3018 72.2791 86.142L108.187 122.05C110.921 124.784 110.921 129.216 108.187 131.95L72.2791 167.858C67.4389 172.698 59.2446 168.43 60.4362 161.69L66.3531 128.219C66.4956 127.412 66.4956 126.588 66.3531 125.781L60.4362 92.3103Z" fill="url(#paint2_linear)"/>
<path d="M193.564 161.69C194.755 168.43 186.561 172.698 181.721 167.858L145.813 131.95C143.079 129.216 143.079 124.784 145.813 122.05L181.721 86.142C186.561 81.3018 194.755 85.5698 193.564 92.3103L187.647 125.781C187.504 126.588 187.504 127.412 187.647 128.219L193.564 161.69Z" fill="url(#paint3_linear)"/>
<path d="M171.069 144.34C174.639 151.443 165.486 158.054 159.865 152.433L138.95 131.518C136.216 128.785 136.216 124.352 138.95 121.619L159.865 100.704C165.486 95.0826 174.639 101.694 171.069 108.797L163.717 123.425C162.723 125.403 162.723 127.734 163.717 129.712L171.069 144.34Z" fill="url(#paint4_linear)"/>
<path d="M144.34 83.0679C151.443 79.4981 158.054 88.6512 152.434 94.2721L131.518 115.187C128.785 117.921 124.352 117.921 121.619 115.187L100.704 94.2721C95.0826 88.6512 101.694 79.4981 108.797 83.0679L123.425 90.4201C125.403 91.4141 127.734 91.4141 129.712 90.4201L144.34 83.0679Z" fill="url(#paint5_linear)"/>
<path d="M83.0679 108.797C79.4981 101.694 88.6512 95.0826 94.2721 100.704L115.187 121.619C117.921 124.352 117.921 128.785 115.187 131.518L94.2721 152.433C88.6512 158.054 79.4981 151.443 83.0679 144.34L90.4201 129.712C91.4141 127.734 91.4141 125.403 90.4201 123.425L83.0679 108.797Z" fill="url(#paint6_linear)"/>
<path d="M108.797 171.069C101.694 174.639 95.0826 165.486 100.704 159.865L121.619 138.95C124.352 136.216 128.785 136.216 131.518 138.95L152.434 159.865C158.054 165.486 151.443 174.639 144.34 171.069L129.712 163.717C127.734 162.723 125.403 162.723 123.425 163.717L108.797 171.069Z" fill="url(#paint7_linear)"/>
<rect x="120" y="134" width="14" height="14" rx="7" transform="rotate(-90 120 134)" fill="url(#paint8_linear)"/>
<defs>
<linearGradient id="paint0_linear" x1="134.5" y1="52" x2="119.5" y2="102" gradientUnits="userSpaceOnUse">
<stop stop-color="#8458FF"/>
<stop offset="1" stop-color="#1EBBFF"/>
</linearGradient>
<linearGradient id="paint1_linear" x1="119.5" y1="202" x2="134.5" y2="152" gradientUnits="userSpaceOnUse">
<stop stop-color="#8458FF"/>
<stop offset="1" stop-color="#1EBBFF"/>
</linearGradient>
<linearGradient id="paint2_linear" x1="52" y1="119.5" x2="102" y2="134.5" gradientUnits="userSpaceOnUse">
<stop stop-color="#8458FF"/>
<stop offset="1" stop-color="#1EBBFF"/>
</linearGradient>
<linearGradient id="paint3_linear" x1="202" y1="134.5" x2="152" y2="119.5" gradientUnits="userSpaceOnUse">
<stop stop-color="#8458FF"/>
<stop offset="1" stop-color="#1EBBFF"/>
</linearGradient>
<linearGradient id="paint4_linear" x1="254.637" y1="136.639" x2="147.499" y2="113.069" gradientUnits="userSpaceOnUse">
<stop stop-color="#BD00FF"/>
<stop offset="1" stop-color="#FF7C7C"/>
</linearGradient>
<linearGradient id="paint5_linear" x1="136.639" y1="-0.499617" x2="113.069" y2="106.638" gradientUnits="userSpaceOnUse">
<stop stop-color="#BD00FF"/>
<stop offset="1" stop-color="#FF7C7C"/>
</linearGradient>
<linearGradient id="paint6_linear" x1="-0.499617" y1="116.498" x2="106.638" y2="140.068" gradientUnits="userSpaceOnUse">
<stop stop-color="#BD00FF"/>
<stop offset="1" stop-color="#FF7C7C"/>
</linearGradient>
<linearGradient id="paint7_linear" x1="116.498" y1="254.637" x2="140.068" y2="147.499" gradientUnits="userSpaceOnUse">
<stop stop-color="#BD00FF"/>
<stop offset="1" stop-color="#FF7C7C"/>
</linearGradient>
<linearGradient id="paint8_linear" x1="120.318" y1="131.826" x2="130.659" y2="148" gradientUnits="userSpaceOnUse">
<stop stop-color="#FF9900"/>
<stop offset="1" stop-color="#FFE600" stop-opacity="0"/>
</linearGradient>
</defs>
</svg>
